<?xml version="1.0" encoding="UTF-8"?>
<!DOCTYPE svg PUBLIC "-//W3C//DTD SVG 1.1//EN" "http://www.w3.org/Graphics/SVG/1.1/DTD/svg11.dtd">
<!-- Creator: CorelDRAW X7 -->
<svg xmlns="http://www.w3.org/2000/svg" xml:space="preserve" width="553.799mm" height="100mm" version="1.1" style="shape-rendering:geometricPrecision; text-rendering:geometricPrecision; image-rendering:optimizeQuality; fill-rule:evenodd; clip-rule:evenodd"
viewBox="0 0 55380 10000"
 xmlns:xlink="http://www.w3.org/1999/xlink">
 <defs>
  <style type="text/css">
   <![CDATA[
    .fil2 {fill:#FEFEFE}
    .fil0 {fill:black}
    .fil1 {fill:red}
   ]]>
  </style>
 </defs>
 <g id="__x0023_Layer_x0020_1">
  <metadata id="CorelCorpID_0Corel-Layer"/>
  <polygon class="fil0" points="43668,7658 43668,7658 44292,7658 44292,9477 44908,9477 44908,7658 45531,7658 45531,7059 43668,7059 "/>
  <polygon class="fil0" points="42786,7906 42786,7906 42123,7906 42123,7059 41508,7059 41508,9477 42123,9477 42123,8500 42786,8500 42786,9477 43401,9477 43401,7059 42786,7059 "/>
  <polygon class="fil0" points="40663,8543 40663,8543 40653,8595 40638,8645 40622,8690 40609,8731 40587,8771 40567,8807 40541,8836 40522,8867 40495,8891 40466,8911 40431,8927 40401,8943 40362,8952 40320,8957 40235,8957 40195,8948 40154,8937 40119,8921 40082,8902 40054,8876 40023,8847 39999,8810 39974,8766 39959,8720 39939,8661 39922,8595 39913,8524 39907,8443 39897,8352 39897,8181 39903,8107 39913,8040 39922,7975 39932,7920 39948,7870 39962,7825 39984,7784 40013,7733 40043,7693 40080,7658 40119,7628 40160,7608 40204,7592 40250,7582 40300,7578 40325,7578 40345,7582 40364,7582 40391,7589 40410,7598 40431,7604 40445,7613 40466,7623 40485,7633 40502,7649 40522,7663 40537,7679 40552,7698 40567,7714 40576,7733 40592,7754 40602,7770 40609,7784 40618,7805 40622,7825 40628,7845 40638,7864 40643,7890 40653,7915 41191,7770 41161,7679 41137,7592 41096,7512 41060,7437 41020,7370 40973,7311 40925,7250 40874,7204 40819,7160 40759,7125 40692,7090 40622,7064 40541,7044 40462,7029 40375,7023 40284,7020 40169,7023 40059,7039 39959,7064 39862,7100 39776,7144 39692,7201 39616,7265 39550,7342 39484,7426 39434,7523 39390,7623 39348,7733 39324,7854 39303,7980 39293,8117 39283,8261 39288,8374 39293,8479 39307,8581 39324,8674 39344,8761 39369,8847 39399,8927 39434,9002 39473,9072 39510,9133 39554,9195 39595,9245 39641,9295 39686,9335 39737,9376 39787,9405 39841,9431 39897,9456 39959,9477 40023,9491 40089,9501 40160,9512 40235,9517 40316,9521 40381,9517 40443,9512 40502,9506 40557,9496 40611,9480 40657,9466 40709,9446 40752,9425 40794,9400 40833,9370 40874,9339 40909,9310 40944,9269 40979,9236 41011,9195 41041,9149 41070,9099 41096,9048 41120,8992 41141,8943 41161,8882 41180,8817 41197,8755 41211,8686 40672,8489 "/>
  <polygon class="fil0" points="37975,8454 37975,8454 38925,8454 38925,7961 37975,7961 37975,7578 39001,7578 39001,7059 37360,7059 37360,9477 39025,9477 39025,8927 37975,8927 "/>
  <polygon class="fil0" points="36867,8761 36867,8761 36857,8746 36850,8731 36841,8710 36826,8690 36815,8670 36801,8650 36786,8626 36769,8605 36756,8581 36741,8559 36730,8543 36720,8530 36706,8520 36695,8509 36691,8500 36675,8489 36660,8474 36646,8463 36626,8454 36605,8443 36580,8433 36554,8423 36529,8408 36565,8398 36594,8388 36626,8379 36649,8368 36675,8352 36701,8342 36725,8328 36746,8313 36776,8293 36801,8267 36826,8238 36850,8213 36876,8181 36896,8147 36916,8117 36936,8076 36951,8040 36968,8001 36981,7961 36988,7920 36997,7874 37003,7829 37007,7779 37007,7673 37003,7623 36997,7569 36981,7517 36971,7471 36957,7422 36936,7382 36916,7342 36892,7301 36867,7265 36837,7236 36811,7204 36776,7181 36746,7155 36710,7135 36675,7120 36635,7104 36588,7094 36545,7084 36494,7074 36434,7069 36373,7064 36307,7059 35219,7059 35219,9477 35834,9477 35834,8494 35910,8494 35931,8500 35950,8503 35970,8509 35985,8520 36005,8524 36025,8540 36040,8549 36051,8564 36066,8581 36076,8599 36092,8621 36106,8645 36120,8670 36136,8701 36152,8736 36479,9477 37169,9477 36870,8777 "/>
  <polygon class="fil0" points="34883,8020 34883,8020 34878,7961 34868,7906 34859,7851 34848,7795 34833,7738 34817,7684 34802,7633 34782,7582 34761,7537 34741,7492 34717,7448 34691,7406 34661,7366 34631,7325 34601,7291 34566,7256 34535,7224 34494,7201 34454,7169 34415,7149 34374,7129 34329,7109 34278,7094 34228,7084 34166,7074 34107,7064 34046,7064 33981,7059 33074,7059 33074,9477 34022,9477 34066,9471 34107,9466 34152,9460 34204,9451 34249,9440 34298,9425 34350,9411 34384,9396 34419,9380 34454,9359 34490,9339 34525,9315 34555,9284 34591,9255 34621,9219 34651,9184 34681,9144 34712,9099 34736,9058 34761,9012 34782,8962 34802,8911 34822,8862 34842,8807 34852,8742 34868,8674 34878,8605 34883,8524 34893,8443 34893,8138 34887,8081 "/>
  <polygon class="fil0" points="32083,8398 32083,8398 31338,7059 30770,7059 30770,9477 31344,9477 31344,8153 32083,9477 32664,9477 32664,7059 32083,7059 "/>
  <polygon class="fil0" points="29379,8454 29379,8454 30330,8454 30330,7961 29379,7961 29379,7578 30408,7578 30408,7059 28765,7059 28765,9477 30437,9477 30437,8927 29379,8927 "/>
  <polygon class="fil0" points="28272,8761 28272,8761 28267,8746 28256,8731 28246,8710 28235,8690 28221,8670 28211,8650 28196,8626 28175,8605 28165,8581 28152,8559 28136,8543 28126,8530 28115,8520 28106,8509 28095,8500 28080,8489 28067,8474 28051,8463 28031,8454 28010,8443 27990,8433 27960,8423 27934,8408 27970,8398 27999,8388 28031,8379 28055,8368 28086,8352 28106,8342 28131,8328 28152,8313 28181,8293 28211,8267 28235,8238 28261,8213 28281,8181 28302,8147 28327,8117 28342,8076 28362,8040 28373,8001 28388,7961 28396,7920 28402,7874 28408,7829 28412,7779 28412,7673 28408,7623 28402,7569 28393,7517 28376,7471 28362,7422 28342,7382 28322,7342 28297,7301 28272,7265 28246,7236 28217,7204 28187,7181 28152,7155 28115,7135 28080,7120 28040,7104 27995,7094 27950,7084 27899,7074 27844,7069 27778,7064 27717,7059 26635,7059 26635,9477 27250,9477 27250,8494 27319,8494 27342,8500 27362,8503 27381,8509 27401,8520 27416,8524 27436,8540 27450,8549 27462,8564 27476,8581 27492,8599 27502,8621 27517,8645 27531,8670 27546,8701 27563,8736 27884,9477 28574,9477 28276,8777 "/>
  <polygon class="fil0" points="25019,7059 25019,7059 24280,9477 24903,9477 24999,9077 25695,9077 25795,9477 26428,9477 25689,7059 "/>
  <polygon class="fil0" points="24199,8680 24199,8680 24192,8626 24183,8581 24169,8530 24148,8484 24129,8443 24108,8403 24078,8368 24049,8333 24017,8302 23977,8277 23936,8252 23891,8227 23841,8208 23790,8192 23825,8178 23857,8158 23885,8141 23917,8121 23942,8101 23968,8076 23987,8057 24008,8031 24033,7991 24051,7950 24072,7906 24088,7860 24097,7814 24108,7764 24113,7714 24113,7598 24108,7537 24092,7483 24078,7426 24051,7377 24027,7325 23997,7276 23962,7236 23922,7190 23876,7155 23825,7129 23776,7104 23721,7084 23660,7069 23594,7064 23520,7059 22376,7059 22376,9477 23478,9477 23503,9471 23533,9471 23614,9460 23660,9451 23705,9446 23744,9435 23780,9431 23815,9421 23841,9411 23871,9400 23896,9391 23917,9376 23936,9365 23968,9339 23997,9315 24027,9290 24051,9259 24072,9230 24097,9199 24118,9164 24132,9129 24153,9089 24164,9048 24178,9008 24189,8967 24199,8927 24203,8882 24203,8836 24209,8787 24203,8731 "/>
  <polygon class="fil1" points="7649,7845 7649,7845 7799,7890 7956,7926 8107,7950 8258,7966 8409,7971 8549,7966 8681,7955 8807,7931 8928,7899 9038,7864 9148,7814 9245,7759 9339,7693 9426,7618 9501,7543 9561,7462 9617,7377 9652,7285 9684,7184 9704,7090 9707,6983 9704,6868 9687,6756 9663,6655 9626,6561 9580,6475 9527,6389 9460,6320 9391,6248 9299,6187 9183,6118 9038,6052 8872,5992 8681,5923 8469,5856 8227,5791 7960,5719 7593,5619 7255,5518 6944,5403 6661,5287 6405,5162 6179,5026 5982,4894 5810,4744 5665,4587 5534,4416 5429,4230 5369,4099 3182,4099 3182,700 0,700 0,9446 3182,9446 3182,5886 7417,5886 7417,7756 7497,7790 "/>
  <polygon class="fil1" points="10458,2387 10458,2387 10337,2316 10212,2256 10086,2195 9959,2145 9834,2101 9707,2060 9580,2029 9457,1999 9331,1980 9204,1963 9083,1954 8832,1954 8716,1963 8601,1983 8494,2010 8394,2039 8299,2080 8212,2125 8133,2176 8056,2236 7991,2296 7936,2366 7890,2432 7854,2508 7830,2588 7814,2669 7809,2754 7814,2839 7830,2926 7851,3001 7879,3077 7920,3147 7971,3213 8026,3273 8091,3329 8167,3383 8262,3433 8373,3484 8505,3541 8645,3589 8807,3641 8978,3690 9175,3742 9183,3742 9200,3747 9216,3751 9229,3751 9245,3755 9264,3761 9280,3767 9299,3771 9712,3882 10090,3992 10428,4103 10619,4176 10619,2486 10584,2462 "/>
  <polygon class="fil0" points="52958,741 52958,741 52958,1867 53709,1867 53709,5488 54629,5488 54629,1867 55380,1867 55380,741 "/>
  <polygon class="fil0" points="52036,3545 52036,3545 52123,3505 52198,3460 52273,3404 52338,3342 52399,3278 52459,3197 52510,3117 52556,3031 52597,2931 52626,2830 52657,2719 52676,2609 52692,2483 52701,2357 52701,2130 52696,2044 52686,1958 52676,1873 52661,1792 52646,1713 52626,1632 52606,1555 52576,1480 52551,1411 52519,1344 52484,1279 52450,1218 52410,1164 52369,1108 52325,1057 52284,1017 52237,977 52192,942 52148,911 52096,882 52048,856 51997,832 51941,810 51882,796 51805,781 51725,770 51635,761 51528,751 51413,745 51286,741 50194,741 50194,5488 51054,5488 51054,3630 51824,5488 52867,5488 51946,3576 "/>
  <polygon class="fil0" points="49600,2750 49600,2750 49585,2628 49570,2512 49545,2392 49519,2276 49484,2165 49448,2055 49408,1943 49369,1838 49323,1736 49272,1636 49217,1540 49157,1451 49097,1360 49031,1274 48965,1194 48895,1118 48824,1047 48749,982 48674,922 48593,866 48512,816 48427,775 48342,735 48255,705 48169,675 48085,655 47993,638 47907,629 47727,629 47637,638 47551,655 47464,675 47379,705 47289,735 47209,775 47123,816 47042,866 46961,922 46887,982 46815,1047 46741,1118 46669,1194 46603,1274 46543,1360 46479,1451 46418,1545 46362,1636 46312,1736 46266,1843 46222,1943 46181,2055 46145,2165 46115,2276 46086,2392 46066,2512 46044,2628 46031,2750 46020,2874 46014,3001 46009,3127 46014,3254 46020,3374 46031,3500 46044,3621 46066,3736 46086,3857 46115,3967 46145,4083 46181,4195 46222,4305 46266,4411 46312,4512 46362,4612 46418,4708 46479,4799 46543,4889 46603,4974 46669,5049 46741,5126 46815,5196 46887,5261 46961,5322 47042,5377 47123,5429 47209,5474 47289,5508 47379,5543 47464,5569 47551,5589 47637,5604 47727,5614 47818,5619 47902,5614 47993,5604 48079,5589 48166,5569 48255,5543 48335,5508 48421,5474 48508,5429 48589,5377 48669,5322 48744,5261 48819,5196 48891,5126 48965,5049 49031,4974 49097,4889 49157,4799 49217,4708 49272,4612 49323,4512 49369,4411 49408,4305 49448,4199 49484,4089 49519,3972 49545,3857 49570,3742 49585,3621 49600,3500 49610,3379 49620,3254 49620,3001 49610,2874 "/>
  <polygon class="fil0" points="45667,2064 45667,2064 45657,1974 45642,1883 45627,1797 45607,1713 45586,1626 45557,1551 45531,1470 45497,1399 45465,1330 45426,1265 45391,1199 45345,1144 45300,1084 45260,1038 45219,998 45173,957 45123,922 45074,891 45023,866 44972,842 44913,816 44852,801 44782,786 44695,770 44600,761 44500,751 44384,745 44258,741 43160,741 43160,5488 44022,5488 44022,3927 44193,3927 44448,3927 44545,3923 44631,3917 44714,3912 44786,3902 44857,3892 44913,3877 44962,3862 45013,3842 45059,3821 45103,3796 45149,3771 45189,3742 45229,3707 45264,3676 45300,3635 45345,3580 45391,3525 45430,3463 45465,3398 45501,3329 45531,3258 45562,3182 45586,3107 45607,3021 45627,2936 45642,2851 45657,2754 45667,2659 45677,2563 45684,2462 45684,2256 45677,2160 "/>
  <polygon class="fil0" points="41760,5554 41760,5554 41882,5504 41997,5438 42103,5357 42204,5261 42295,5156 42375,5035 42445,4914 42511,4773 42556,4627 42596,4471 42620,4305 42641,4129 42646,3943 42646,3868 42641,3796 42637,3726 42631,3655 42620,3589 42611,3525 42596,3460 42581,3398 42566,3339 42546,3278 42530,3222 42506,3167 42480,3117 42456,3072 42430,3021 42400,2976 42350,2910 42290,2851 42213,2790 42128,2729 42032,2673 41922,2613 41801,2558 41666,2503 41649,2503 41645,2497 41640,2497 41635,2493 41623,2493 41623,2488 41559,2462 41503,2437 41447,2412 41402,2387 41362,2361 41323,2337 41298,2311 41267,2282 41246,2256 41232,2224 41217,2190 41201,2155 41191,2120 41186,2080 41177,2039 41177,1954 41186,1914 41191,1873 41201,1838 41217,1802 41237,1768 41257,1736 41281,1707 41307,1682 41338,1655 41367,1636 41402,1621 41434,1612 41473,1602 41508,1596 41594,1596 41629,1602 41675,1607 41715,1621 41755,1632 41795,1652 41835,1667 41876,1692 41916,1717 41962,1747 42002,1777 42042,1814 42082,1847 42123,1888 42159,1934 42198,1980 42485,1047 42430,992 42375,946 42315,902 42257,856 42198,821 42137,786 42078,756 42011,724 41951,700 41887,679 41821,660 41755,644 41690,635 41623,624 41554,619 41482,619 41358,624 41237,644 41126,679 41014,731 40914,791 40819,862 40729,952 40643,1052 40572,1164 40507,1285 40445,1411 40401,1545 40364,1687 40345,1838 40325,1999 40320,2165 40325,2291 40336,2412 40351,2529 40375,2633 40401,2734 40436,2825 40476,2910 40528,2991 40583,3066 40648,3138 40724,3202 40804,3263 40893,3323 40995,3379 41106,3429 41226,3479 41312,3514 41393,3549 41463,3586 41523,3616 41580,3651 41623,3680 41659,3715 41690,3747 41715,3782 41736,3817 41755,3857 41770,3902 41782,3952 41791,3998 41791,4053 41795,4114 41791,4164 41786,4214 41775,4265 41766,4310 41750,4351 41729,4391 41705,4432 41675,4466 41645,4502 41614,4526 41580,4552 41544,4571 41503,4587 41463,4598 41419,4607 41373,4607 41323,4602 41272,4598 41220,4581 41177,4567 41126,4541 41076,4517 41025,4480 40973,4445 40925,4400 40874,4351 40823,4300 40773,4239 40724,4174 40672,4103 40622,4032 40572,3952 40154,4919 40224,5000 40290,5085 40362,5162 40426,5232 40495,5292 40567,5354 40643,5403 40713,5448 40784,5488 40859,5523 40934,5549 41014,5573 41096,5595 41180,5604 41267,5614 41353,5619 41499,5609 41629,5589 "/>
  <polygon class="fil0" points="36226,4646 36226,4646 37531,4646 37703,5488 38619,5488 37451,741 36298,741 35150,5424 35180,5488 36051,5488 "/>
  <polygon class="fil0" points="34354,3545 34354,3545 34439,3505 34514,3460 34585,3404 34656,3342 34717,3278 34771,3197 34828,3117 34868,3031 34908,2931 34938,2830 34968,2719 34989,2609 35003,2483 35014,2357 35014,2130 35008,2044 34999,1958 34989,1873 34979,1792 34959,1713 34938,1632 34918,1555 34893,1480 34862,1411 34833,1344 34802,1279 34761,1218 34721,1164 34681,1108 34640,1057 34594,1017 34555,977 34511,942 34459,911 34415,882 34364,856 34309,832 34253,810 34192,796 34123,781 34042,770 33945,761 33844,751 33730,745 33603,741 32507,741 32507,5488 33367,5488 33367,3630 34143,5488 35134,5488 35150,5424 34264,3576 "/>
  <polygon class="fil0" points="30386,5488 30386,5488 31301,5488 31301,1867 32058,1867 32058,741 29637,741 29637,1867 30386,1867 "/>
  <polygon class="fil0" points="28936,5261 28936,5261 29027,5156 29108,5035 29183,4914 29244,4773 29290,4627 29329,4471 29360,4305 29373,4129 29379,3943 29379,3868 29373,3796 29371,3726 29364,3655 29354,3589 29344,3525 29334,3460 29319,3398 29299,3339 29283,3278 29263,3222 29238,3167 29218,3117 29193,3072 29163,3021 29137,2976 29088,2910 29022,2851 28946,2790 28861,2729 28765,2673 28655,2613 28535,2558 28396,2503 28383,2503 28376,2497 28373,2493 28362,2493 28356,2488 28292,2462 28235,2437 28187,2412 28136,2387 28095,2361 28061,2337 28031,2311 28005,2282 27986,2256 27964,2224 27950,2190 27934,2155 27925,2120 27918,2080 27914,2039 27914,1954 27918,1914 27925,1873 27940,1838 27954,1802 27970,1768 27990,1736 28015,1707 28040,1682 28071,1655 28100,1636 28136,1621 28172,1612 28206,1602 28246,1596 28327,1596 28366,1602 28408,1607 28447,1621 28489,1632 28528,1652 28568,1667 28609,1692 28655,1717 28694,1747 28735,1777 28775,1814 28815,1847 28856,1888 28896,1934 28931,1980 29224,1047 29169,992 29108,946 29052,902 28991,856 28931,821 28870,786 28810,756 28750,724 28684,700 28620,679 28560,660 28493,644 28422,635 28356,624 28292,619 28221,619 28091,624 27975,644 27859,679 27752,731 27652,791 27557,862 27466,952 27385,1052 27310,1164 27244,1285 27189,1411 27144,1545 27108,1687 27083,1838 27069,1999 27063,2165 27063,2291 27073,2412 27089,2529 27115,2633 27138,2734 27174,2825 27219,2910 27265,2991 27319,3066 27385,3138 27462,3202 27542,3263 27637,3323 27733,3379 27844,3429 27960,3479 28051,3514 28126,3549 28196,3586 28261,3616 28314,3651 28356,3680 28396,3715 28428,3747 28453,3782 28473,3817 28489,3857 28503,3902 28519,3952 28523,3998 28528,4053 28528,4164 28523,4214 28514,4265 28499,4310 28482,4351 28464,4391 28437,4432 28412,4466 28376,4502 28348,4526 28314,4552 28276,4571 28235,4587 28196,4598 28152,4607 28106,4607 28055,4602 28010,4598 27960,4581 27909,4567 27859,4541 27808,4517 27758,4480 27713,4445 27667,4400 27618,4351 27563,4300 27512,4239 27462,4174 27411,4103 27362,4032 27310,3952 26897,4919 26962,5000 27028,5085 27098,5162 27169,5232 27238,5292 27310,5354 27381,5403 27450,5448 27526,5488 27602,5523 27678,5549 27752,5573 27833,5595 27914,5604 27999,5614 28086,5619 28233,5609 28366,5589 28493,5554 28620,5504 28729,5438 28835,5357 "/>
  <polygon class="fil0" points="23620,3440 23620,3440 23630,3374 23636,3309 23640,3242 23645,3173 23649,3112 23654,3041 23660,2976 23664,2910 23670,2845 23675,2779 23680,2714 23680,2644 23684,2578 23689,2512 23695,2442 23695,2377 23705,2451 23716,2538 23730,2624 23744,2714 23760,2810 23780,2910 23802,3017 23825,3127 23825,3151 23831,3173 23836,3187 23841,3208 23841,3222 23845,3238 23850,3254 23850,3267 24309,5488 24923,5488 25381,3267 25388,3254 25388,3238 25391,3222 25391,3208 25397,3187 25402,3173 25408,3151 25411,3127 25431,3017 25452,2910 25472,2810 25487,2714 25503,2624 25518,2532 25528,2451 25538,2372 25542,2451 25548,2529 25548,2604 25553,2679 25557,2750 25564,2819 25564,2891 25568,2956 25573,3021 25577,3086 25583,3147 25589,3208 25593,3267 25599,3329 25603,3383 25609,3440 25805,5488 26666,5488 26147,741 25230,741 24722,3182 24712,3238 24697,3287 24693,3339 24682,3388 24672,3429 24666,3474 24657,3514 24651,3554 24647,3595 24641,3630 24631,3670 24631,3707 24625,3736 24621,3771 24617,3807 24617,3836 24612,3777 24601,3715 24596,3651 24586,3580 24577,3510 24562,3433 24546,3359 24526,3278 24520,3263 24520,3248 24515,3238 24515,3213 24511,3208 24511,3197 24505,3192 23997,741 23090,741 22567,5488 23423,5488 "/>
  <polygon class="fil0" points="20120,5488 20120,5488 22190,5488 22190,4432 21017,4432 21017,3630 22124,3630 22124,2609 21017,2609 21017,1787 22190,1787 22190,741 20120,741 "/>
  <polygon class="fil0" points="18454,5488 18454,5488 19384,5488 19384,741 18454,741 "/>
  <polygon class="fil0" points="16787,2588 16787,2588 15558,2588 15558,741 14642,741 14642,5488 15558,5488 15558,3560 16787,3560 16787,5488 17710,5488 17710,741 16787,741 "/>
  <polygon class="fil1" points="7417,700 7417,700 10619,700 10619,2486 10705,2543 10825,2628 10945,2719 11833,851 11657,745 11479,650 11304,559 11123,478 10942,402 10756,332 10569,267 10377,212 10188,162 9989,121 9788,86 9586,55 9380,30 9175,15 8969,6 8751,0 8368,15 8001,55 7649,121 7316,217 7004,337 6707,488 6434,660 6173,862 5942,1087 5741,1324 5569,1580 5429,1847 5322,2135 5247,2437 5195,2754 5182,3086 5192,3342 5221,3586 5272,3817 5337,4029 5369,4099 7417,4099 "/>
  <polygon class="fil1" points="12290,6208 12271,6073 12240,5936 12210,5805 12170,5676 12124,5554 12074,5433 12024,5317 11959,5201 11894,5095 11817,5000 11742,4899 11657,4804 11566,4718 11414,4587 11225,4466 10997,4340 10730,4219 10619,4176 10619,9446 7417,9446 7417,7756 7341,7724 7191,7644 7034,7558 6882,7462 6726,7357 6571,7236 6414,7109 6258,6968 6103,6821 5946,6661 4667,8599 4874,8771 5085,8937 5298,9089 5509,9224 5725,9356 5936,9471 6158,9571 6379,9662 6606,9743 6839,9808 7075,9868 7316,9919 7569,9955 7819,9980 8081,10000 8354,10000 8786,9989 9204,9945 9603,9873 9974,9773 10322,9642 10650,9480 10956,9295 11234,9077 11491,8842 11707,8586 11894,8307 12048,8011 12164,7693 12249,7366 12301,7013 12317,6642 12317,6495 12306,6349 "/>
  <polygon class="fil2" points="36393,7810 36393,7810 36388,7829 36388,7851 36383,7864 36379,7885 36373,7899 36362,7915 36353,7931 36347,7945 36333,7961 36321,7971 36307,7980 36298,7991 36282,7997 36272,8001 36259,8006 36226,8017 36201,8020 36178,8026 36156,8031 36136,8036 36120,8036 36106,8040 35834,8040 35834,7548 36145,7548 36181,7552 36213,7558 36242,7563 36272,7572 36293,7582 36318,7598 36333,7613 36347,7628 36358,7644 36368,7663 36379,7689 36383,7709 36388,7733 36393,7764 "/>
  <polygon class="fil2" points="34278,8408 34278,8408 34273,8469 34269,8524 34264,8575 34253,8621 34249,8661 34233,8696 34224,8726 34208,8755 34198,8782 34183,8807 34163,8827 34146,8847 34127,8862 34107,8876 34087,8887 34062,8897 34031,8907 34003,8917 33961,8921 33925,8921 33880,8927 33684,8927 33684,7608 33896,7608 33945,7618 33996,7628 34042,7644 34082,7663 34117,7689 34152,7714 34178,7750 34204,7790 34224,7834 34238,7890 34253,7950 34269,8020 34273,8101 34278,8181 "/>
  <polygon class="fil2" points="27798,7829 27798,7829 27793,7851 27787,7864 27784,7885 27778,7899 27768,7915 27764,7931 27752,7945 27743,7961 27728,7971 27717,7980 27703,7991 27693,7997 27683,8001 27667,8006 27637,8017 27612,8020 27586,8026 27566,8031 27546,8036 27531,8036 27517,8040 27250,8040 27250,7548 27557,7548 27591,7552 27627,7558 27658,7563 27683,7572 27703,7582 27724,7598 27739,7613 27752,7628 27764,7644 27778,7663 27784,7689 27793,7709 27793,7733 27798,7764 "/>
  <polygon class="fil2" points="25129,8554 25129,8554 25347,7689 25568,8554 "/>
  <polygon class="fil2" points="51795,2471 51795,2471 51785,2538 51775,2604 51760,2659 51740,2714 51720,2764 51690,2805 51659,2845 51619,2874 51579,2906 51533,2931 51479,2951 51423,2966 51362,2976 51296,2985 51054,2985 51054,1736 51235,1736 51313,1742 51378,1747 51438,1762 51498,1777 51548,1797 51594,1821 51635,1853 51669,1888 51700,1928 51725,1980 51744,2029 51764,2095 51781,2160 51785,2230 51795,2311 "/>
  <polygon class="fil2" points="48698,3273 48698,3273 48689,3414 48669,3549 48638,3680 48603,3801 48563,3917 48512,4029 48451,4129 48388,4219 48320,4305 48245,4370 48166,4426 48085,4471 47998,4502 47913,4521 47818,4526 47721,4521 47631,4502 47545,4471 47464,4432 47384,4370 47314,4305 47243,4224 47182,4133 47123,4029 47072,3923 47032,3807 46996,3686 46967,3554 46951,3420 46935,3273 46935,2976 46951,2834 46967,2704 46996,2572 47032,2451 47077,2337 47128,2224 47182,2120 47250,2029 47319,1948 47394,1879 47471,1821 47551,1777 47637,1747 47727,1727 47818,1722 47913,1727 47998,1747 48085,1777 48166,1821 48240,1879 48310,1948 48381,2029 48447,2124 48508,2224 48557,2337 48603,2451 48638,2578 48669,2704 48689,2839 48698,2981 48703,3127 "/>
  <polygon class="fil2" points="44792,2392 44792,2392 44786,2458 44776,2523 44760,2578 44741,2633 44721,2679 44695,2719 44660,2754 44626,2784 44585,2810 44535,2830 44479,2851 44419,2865 44353,2874 44278,2880 44197,2880 44022,2880 44022,1762 44207,1762 44288,1768 44359,1773 44425,1782 44485,1797 44539,1814 44585,1833 44631,1859 44666,1888 44695,1924 44721,1963 44741,2010 44760,2060 44776,2114 44786,2176 44792,2246 44795,2316 "/>
  <polygon class="fil2" points="36760,2149 36760,2149 36769,2114 36776,2080 36786,2039 36790,2003 36801,1963 36806,1924 36815,1883 36822,1847 36826,1808 36837,1768 36841,1722 36850,1682 36857,1642 36867,1596 36870,1555 36881,1511 36892,1571 36902,1632 36911,1687 36916,1736 36927,1787 36936,1838 36947,1879 36951,1919 36957,1958 36962,1994 36971,2029 36977,2060 36981,2084 36988,2109 36992,2130 36997,2149 37339,3722 36422,3722 "/>
  <polygon class="fil2" points="34107,2471 34107,2471 34102,2538 34091,2604 34077,2659 34056,2714 34031,2764 34006,2805 33971,2845 33936,2874 33896,2906 33844,2931 33795,2951 33740,2966 33679,2976 33609,2985 33367,2985 33367,1736 33555,1736 33623,1742 33694,1747 33756,1762 33810,1777 33861,1797 33906,1821 33945,1853 33981,1888 34012,1928 34037,1980 34062,2029 34077,2095 34091,2160 34102,2230 34107,2311 "/>
  <polygon class="fil2" points="23594,8731 23594,8731 23590,8761 23584,8787 23579,8807 23568,8830 23559,8852 23544,8871 23529,8887 23514,8907 23494,8917 23469,8932 23439,8943 23413,8948 23379,8952 23347,8957 22995,8957 22995,8469 23379,8469 23413,8474 23439,8484 23469,8494 23494,8503 23514,8520 23529,8534 23544,8549 23559,8570 23568,8586 23579,8609 23584,8630 23590,8655 23594,8680 "/>
  <polygon class="fil2" points="22995,7548 22995,7548 23267,7552 23328,7552 23358,7558 23382,7563 23402,7572 23428,7582 23443,7598 23459,7608 23474,7623 23483,7644 23494,7658 23499,7679 23509,7704 23514,7724 23514,7829 23509,7854 23499,7874 23494,7894 23483,7915 23474,7931 23459,7950 23443,7961 23428,7975 23402,7985 23382,7997 23353,8001 23328,8006 22995,8006 "/>
 </g>
</svg>
