<?xml version="1.0" encoding="UTF-8"?>
<!DOCTYPE svg PUBLIC "-//W3C//DTD SVG 1.1//EN" "http://www.w3.org/Graphics/SVG/1.1/DTD/svg11.dtd">
<!-- Creator: CorelDRAW X7 -->
<svg xmlns="http://www.w3.org/2000/svg" xml:space="preserve" width="44.093mm" height="50mm" version="1.1" style="shape-rendering:geometricPrecision; text-rendering:geometricPrecision; image-rendering:optimizeQuality; fill-rule:evenodd; clip-rule:evenodd"
viewBox="0 0 4409 5000"
 xmlns:xlink="http://www.w3.org/1999/xlink">
 <defs>
  <style type="text/css">
   <![CDATA[
    .str0 {stroke:#2B2A29;stroke-width:20}
    .fil1 {fill:#2B2A29}
    .fil0 {fill:#2B2A29}
    .fil2 {fill:#2B2A29;fill-rule:nonzero}
   ]]>
  </style>
 </defs>
 <g id="Laag_x0020_1">
  <metadata id="CorelCorpID_0Corel-Layer"/>
  <g id="_689825638448">
   <rect class="fil0 str0" x="406" y="414" width="3598" height="408"/>
   <rect class="fil0 str0" x="406" y="1458" width="3598" height="408"/>
   <rect class="fil0 str0" x="406" y="2490" width="3598" height="408"/>
  </g>
  <path class="fil1" d="M406 4602l0 -1094 217 0 259 775c24,72 41,126 52,162 12,-40 32,-99 59,-176l263 -761 194 0 0 1094 -139 0 0 -915 -320 915 -130 0 -316 -932 0 932 -139 0zm1800 -256l139 18c-21,81 -62,144 -121,188 -59,45 -135,67 -226,67 -116,0 -208,-36 -276,-107 -67,-71 -101,-171 -101,-300 0,-133 34,-236 102,-309 69,-74 158,-111 267,-111 106,0 192,36 259,108 67,73 101,174 101,305 0,7 -1,19 -1,35l-591 0c5,87 30,154 74,200 44,46 100,69 166,69 49,0 91,-13 125,-39 35,-26 63,-67 83,-124zm-440 -216l442 0c-6,-67 -23,-116 -51,-150 -43,-52 -98,-78 -166,-78 -62,0 -113,21 -155,62 -42,42 -65,97 -70,166zm749 472l0 -793 121 0 0 113c58,-87 142,-130 252,-130 48,0 91,9 131,26 40,17 70,40 90,68 20,27 34,61 42,99 5,25 7,68 7,130l0 487 -134 0 0 -482c0,-54 -5,-95 -16,-122 -10,-27 -29,-49 -55,-65 -27,-16 -58,-24 -94,-24 -57,0 -106,18 -147,54 -42,36 -62,105 -62,207l0 432 -135 0zm1368 0l0 -118c-62,90 -145,135 -251,135 -47,0 -90,-9 -131,-27 -40,-18 -70,-40 -90,-67 -19,-27 -33,-60 -41,-100 -5,-26 -8,-68 -8,-125l0 -491 134 0 0 439c0,70 3,117 8,142 9,35 27,63 54,83 27,20 61,30 101,30 41,0 78,-10 113,-31 36,-20 61,-49 75,-84 15,-36 22,-87 22,-155l0 -424 135 0 0 793 -121 0z"/>
  <path class="fil2" d="M564 10l3286 0c155,0 295,63 397,164 102,102 165,242 165,397l0 3877c0,155 -63,295 -165,397 -102,101 -242,165 -397,165l-3286 0c-155,0 -295,-64 -397,-165 -102,-102 -165,-242 -165,-397l0 -3877c0,-155 63,-295 165,-397 102,-101 242,-164 397,-164zm3286 192l-3286 0c-102,0 -194,41 -261,108 -67,67 -108,160 -108,261l0 3877c0,102 41,194 108,261 67,67 159,108 261,108l3286 0c102,0 194,-41 261,-108 67,-67 108,-159 108,-261l0 -3877c0,-101 -41,-194 -108,-261 -67,-67 -159,-108 -261,-108z"/>
 </g>
</svg>
